<svg width="1365.8256" height="280.48944" version="1.1" viewBox="0 0 1365.8255 280.48944" xmlns="http://www.w3.org/2000/svg" xmlns:xlink="http://www.w3.org/1999/xlink">
<style>
@media (prefers-color-scheme: dark) {
  svg { -webkit-filter:invert(0.90); filter:invert(0.90); }
}</style>
<title>Vaultwarden Logo</title>
<defs>
<mask id="d">
<rect x="-60" y="-60" width="120" height="120" fill="#fff"/>
<circle id="b" cy="-40" r="3"/>
<use transform="rotate(72)" xlink:href="#b"/>
<use transform="rotate(144)" xlink:href="#b"/>
<use transform="rotate(216)" xlink:href="#b"/>
<use transform="rotate(-72)" xlink:href="#b"/>
</mask>
</defs>
<g transform="translate(-10.708266,-9.2965379)" aria-label="aultwarden">
<path d="m371.55338 223.43649-5.76172-14.84375h-0.78125q-7.51953 9.47266-15.52735 13.1836-7.91015 3.61328-20.70312 3.61328-15.72266 0-24.80469-8.98438-8.98437-8.98437-8.98437-25.58593 0-17.38282 12.10937-25.58594 12.20703-8.30078 36.71875-9.17969l18.94531-0.58594v-4.78515q0-16.60157-16.99218-16.60157-13.08594 0-30.76172 7.91016l-9.86328-20.11719q18.84765-9.86328 41.79687-9.86328 21.97266 0 33.69141 9.57031 11.71875 9.57032 11.71875 29.10157v72.7539zm-8.78907-50.58593-11.52343 0.39062q-12.98829 0.39063-19.33594 4.6875-6.34766 4.29688-6.34766 13.08594 0 12.59765 14.45313 12.59765 10.35156 0 16.5039-5.95703 6.25-5.95703 6.25-15.82031zm137.59766 50.58593-4.00391-13.96484h-1.5625q-4.78515 7.61719-13.57422 11.81641-8.78906 4.10156-20.01953 4.10156-19.23828 0-29.0039-10.25391-9.76563-10.35156-9.76563-29.6875v-71.1914h29.78516v63.76953q0 11.8164 4.19922 17.77343 4.19922 5.85938 13.3789 5.85938 12.5 0 18.06641-8.30078 5.56641-8.39844 5.56641-27.73438v-51.36718h29.78515v109.17968zm83.88672 0h-29.78516v-151.953122h29.78516zm77.24609-21.77734q7.8125 0 18.75-3.41797v22.16797q-11.13281 4.98047-27.34375 4.98047-17.87109 0-26.07422-8.98438-8.10547-9.08203-8.10547-27.14843v-52.63672h-14.25781v-12.59766l16.40625-9.96094 8.59375-23.046872h19.04297v23.242192h30.56641v22.36328h-30.56641v52.63672q0 6.34765 3.51563 9.375 3.61328 3.02734 9.47265 3.02734z"/>
<path d="m791.27994 223.43649-19.62891-62.79297q-1.85547-5.76171-6.93359-26.17187h-0.78125q-3.90625 17.08984-6.83594 26.36719l-20.21484 62.59765h-18.75l-29.19922-107.03125h16.99219q10.35156 40.33203 15.72265 61.42578 5.46875 21.09375 6.25 28.41797h0.78125q1.07422-5.5664 3.41797-14.35547 2.44141-8.88671 4.19922-14.0625l19.62891-61.42578h17.57812l19.14063 61.42578q5.46875 16.79688 7.42187 28.22266h0.78125q0.39063-3.51562 2.05078-10.83984 1.75781-7.32422 20.41016-78.8086h16.79687l-29.58984 107.03125zm133.98437 0-3.22265-15.23437h-0.78125q-8.00782 10.05859-16.01563 13.67187-7.91015 3.51563-19.82422 3.51563-15.91797 0-25-8.20313-8.98437-8.20312-8.98437-23.33984 0-32.42188 51.85547-33.98438l18.16406-0.58593v-6.64063q0-12.59765-5.46875-18.55469-5.37109-6.05468-17.28516-6.05468-13.3789 0-30.27343 8.20312l-4.98047-12.40234q7.91015-4.29688 17.28515-6.73828 9.47266-2.44141 18.94532-2.44141 19.14062 0 28.32031 8.49609 9.27734 8.4961 9.27734 27.2461v73.04687zm-36.62109-11.42578q15.13672 0 23.73047-8.30078 8.6914-8.30078 8.6914-23.24219v-9.66797l-16.21093 0.6836q-19.33594 0.68359-27.92969 6.05469-8.49609 5.27343-8.49609 16.5039 0 8.78906 5.27343 13.37891 5.3711 4.58984 14.94141 4.58984zm130.85938-97.55859q7.1289 0 12.793 1.17187l-2.2461 15.03907q-6.6407-1.46485-11.7188-1.46485-12.9883 0-22.26561 10.54688-9.17968 10.54687-9.17968 26.26953v57.42187h-16.21094v-107.03125h13.37891l1.85546 19.82422h0.78125q5.95704-10.44922 14.35551-16.11328 8.3984-5.66406 18.457-5.66406zm101.6602 94.6289h-0.879q-11.2304 16.3086-33.5937 16.3086-20.9961 0-32.7148-14.35547-11.6211-14.35547-11.6211-40.82031 0-26.46485 11.7187-41.11328 11.7188-14.64844 32.6172-14.64844 21.7773 0 33.3984 15.82031h1.2696l-0.6836-7.71484-0.3907-7.51953v-43.554692h16.211v151.953122h-13.1836zm-32.4219 2.73438q16.6015 0 24.0234-8.98438 7.5195-9.08203 7.5195-29.19921v-3.41797q0-22.75391-7.6171-32.42188-7.5196-9.76562-24.1211-9.76562-14.2578 0-21.875 11.13281-7.5196 11.03516-7.5196 31.25 0 20.50781 7.5196 30.95703 7.5195 10.44922 22.0703 10.44922zm127.3437 13.57422q-23.7304 0-37.5-14.45313-13.6718-14.45312-13.6718-40.13672 0-25.8789 12.6953-41.11328 12.7929-15.23437 34.2773-15.23437 20.1172 0 31.8359 13.28125 11.7188 13.18359 11.7188 34.86328v10.25391h-73.7305q0.4883 18.84765 9.4727 28.61328 9.082 9.76562 25.4883 9.76562 17.2851 0 34.1797-7.22656v14.45312q-8.5938 3.71094-16.3086 5.27344-7.6172 1.66016-18.4571 1.66016zm-4.3945-97.36328q-12.8906 0-20.6055 8.39843-7.6172 8.39844-8.9843 23.24219h55.957q0-15.33203-6.836-23.4375-6.8359-8.20312-19.5312-8.20312zm144.6289 95.41015v-69.23828q0-13.08594-5.957-19.53125-5.9571-6.44531-18.6524-6.44531-16.7968 0-24.6093 9.08203t-7.8125 29.98047v56.15234h-16.211v-107.03125h13.1836l2.6367 14.64844h0.7813q4.9804-7.91016 13.9648-12.20703 8.9844-4.39453 20.0196-4.39453 19.3359 0 29.1015 9.375 9.7656 9.27734 9.7656 29.78515v69.82422z"/>
</g>
<g transform="translate(-10.708266,-9.2965379)">
<g id="e" transform="matrix(2.6712834,0,0,2.6712834,150.95027,149.53854)">
<g id="f" mask="url(#d)">
<path d="m-31.1718-33.813208 26.496029 74.188883h9.3515399l26.49603-74.188883h-9.767164l-16.728866 47.588948q-1.662496 4.571864-2.805462 8.624198-1.142966 3.948427-1.870308 7.585137-.72734199-3.63671-1.8703079-7.689043-1.142966-4.052334-2.805462-8.728104l-16.624959-47.381136z" stroke="#000" stroke-width="4.51171"/>
<circle transform="scale(-1,1)" r="43" fill="none" stroke="#000" stroke-width="9"/>
<g id="g" transform="scale(-1,1)">
<polygon id="a" points="46 -3 46 3 51 0" stroke="#000" stroke-linejoin="round" stroke-width="3"/>
<use transform="rotate(11.25)" xlink:href="#a"/>
<use transform="rotate(22.5)" xlink:href="#a"/>
<use transform="rotate(33.75)" xlink:href="#a"/>
<use transform="rotate(45)" xlink:href="#a"/>
<use transform="rotate(56.25)" xlink:href="#a"/>
<use transform="rotate(67.5)" xlink:href="#a"/>
<use transform="rotate(78.75)" xlink:href="#a"/>
<use transform="rotate(90)" xlink:href="#a"/>
<use transform="rotate(101.25)" xlink:href="#a"/>
<use transform="rotate(112.5)" xlink:href="#a"/>
<use transform="rotate(123.75)" xlink:href="#a"/>
<use transform="rotate(135)" xlink:href="#a"/>
<use transform="rotate(146.25)" xlink:href="#a"/>
<use transform="rotate(157.5)" xlink:href="#a"/>
<use transform="rotate(168.75)" xlink:href="#a"/>
<use transform="scale(-1)" xlink:href="#a"/>
<use transform="rotate(191.25)" xlink:href="#a"/>
<use transform="rotate(202.5)" xlink:href="#a"/>
<use transform="rotate(213.75)" xlink:href="#a"/>
<use transform="rotate(225)" xlink:href="#a"/>
<use transform="rotate(236.25)" xlink:href="#a"/>
<use transform="rotate(247.5)" xlink:href="#a"/>
<use transform="rotate(258.75)" xlink:href="#a"/>
<use transform="rotate(-90)" xlink:href="#a"/>
<use transform="rotate(-78.75)" xlink:href="#a"/>
<use transform="rotate(-67.5)" xlink:href="#a"/>
<use transform="rotate(-56.25)" xlink:href="#a"/>
<use transform="rotate(-45)" xlink:href="#a"/>
<use transform="rotate(-33.75)" xlink:href="#a"/>
<use transform="rotate(-22.5)" xlink:href="#a"/>
<use transform="rotate(-11.25)" xlink:href="#a"/>
</g>
<g id="h" transform="scale(-1,1)">
<polygon id="c" points="7 -42 -7 -42 0 -35" stroke="#000" stroke-linejoin="round" stroke-width="6"/>
<use transform="rotate(72)" xlink:href="#c"/>
<use transform="rotate(144)" xlink:href="#c"/>
<use transform="rotate(216)" xlink:href="#c"/>
<use transform="rotate(-72)" xlink:href="#c"/>
</g>
</g>
<mask>
<rect x="-60" y="-60" width="120" height="120" fill="#fff"/>
<circle cy="-40" r="3"/>
<use transform="rotate(72)" xlink:href="#b"/>
<use transform="rotate(144)" xlink:href="#b"/>
<use transform="rotate(216)" xlink:href="#b"/>
<use transform="rotate(-72)" xlink:href="#b"/>
</mask>
</g>
</g>
</svg>
