<?xml version="1.0" encoding="UTF-8" standalone="no"?>
<svg
   width="2500"
   height="2500"
   preserveAspectRatio="xMidYMid"
   version="1.1"
   viewBox="0 0 256 256"
   id="svg17"
   sodipodi:docname="vaultwarden-icon-white.svg"
   inkscape:version="1.1 (c4e8f9ed74, 2021-05-24)"
   inkscape:export-filename="vaultwarden-icon-white.png"
   inkscape:export-xdpi="13"
   inkscape:export-ydpi="13"
   xmlns:inkscape="http://www.inkscape.org/namespaces/inkscape"
   xmlns:sodipodi="http://sodipodi.sourceforge.net/DTD/sodipodi-0.dtd"
   xmlns="http://www.w3.org/2000/svg"
   xmlns:svg="http://www.w3.org/2000/svg"
   xmlns:rdf="http://www.w3.org/1999/02/22-rdf-syntax-ns#"
   xmlns:cc="http://creativecommons.org/ns#"
   xmlns:dc="http://purl.org/dc/elements/1.1/">
  <title
     id="title33">Vaultwarden Icon - White</title>
  <sodipodi:namedview
     id="namedview19"
     pagecolor="#000000"
     bordercolor="#666666"
     borderopacity="1.0"
     inkscape:pageshadow="2"
     inkscape:pageopacity="0"
     inkscape:pagecheckerboard="0"
     showgrid="false"
     inkscape:zoom="0.1684"
     inkscape:cx="2960.2138"
     inkscape:cy="1172.8028"
     inkscape:window-width="1615"
     inkscape:window-height="945"
     inkscape:window-x="2192"
     inkscape:window-y="59"
     inkscape:window-maximized="0"
     inkscape:current-layer="svg17" />
  <defs
     id="defs7">
    <filter
       id="a"
       color-interpolation-filters="sRGB"
       x="0"
       y="0"
       width="1"
       height="1">
      <feColorMatrix
         result="color1"
         type="hueRotate"
         values="180"
         id="feColorMatrix2" />
      <feColorMatrix
         result="color2"
         values="-1 0 0 0 1 0 -1 0 0 1 0 0 -1 0 1 -0.21 -0.72 -0.07 2 0 "
         id="feColorMatrix4" />
    </filter>
  </defs>
  <g
     filter="url(#a)"
     id="g15">
    <path
       d="m254.25 124.86-10.747-6.653c-0.0907-1.0444-0.19275-2.0878-0.306-3.13l9.236-8.615c0.93919-0.87247 1.3576-2.1702 1.105-3.427-0.24667-1.2576-1.129-2.2967-2.33-2.744l-11.807-4.415c-0.29654-1.0195-0.6049-2.0356-0.925-3.048l7.365-10.229c1.609-2.2301 0.30752-5.3738-2.407-5.814l-12.45-2.025c-0.484-0.944-0.988-1.874-1.496-2.796l5.231-11.483c0.53555-1.1652 0.42645-2.5251-0.288-3.59-0.70881-1.0684-1.9228-1.6905-3.204-1.642l-12.636 0.44c-0.65261-0.8174-1.318-1.6245-1.996-2.421l2.904-12.308c0.29536-1.2482-0.0779-2.5602-0.986-3.466-0.90579-0.90673-2.2165-1.2798-3.464-0.986l-12.305 2.901c-0.79878-0.67726-1.6075-1.3427-2.426-1.996l0.442-12.635c0.0481-1.2809-0.57299-2.4947-1.64-3.205-1.0652-0.71321-2.4241-0.82298-3.59-0.29l-11.48 5.234c-0.92601-0.51108-1.8581-1.0111-2.796-1.5l-2.03-12.452c-0.44306-2.7111-3.5818-4.011-5.812-2.407l-10.236 7.365c-1.007-0.32-2.02-0.629-3.042-0.922l-4.415-11.809c-0.44658-1.203-1.4861-2.0876-2.745-2.336-1.2557-0.24711-2.5501 0.171-3.424 1.106l-8.615 9.243c-1.0418-0.11676-2.0853-0.21877-3.13-0.306l-6.653-10.75c-1.4456-2.3359-4.8434-2.3359-6.289 0l-6.653 10.75c-1.0457 0.08711-2.0902 0.18912-3.133 0.306l-8.617-9.243c-1.8733-2.0136-5.2112-1.3481-6.169 1.23l-4.414 11.809c-1.023 0.293-2.035 0.604-3.045 0.922l-10.234-7.365c-1.0396-0.75151-2.395-0.90868-3.579-0.415-1.1826 0.49121-2.0278 1.5583-2.235 2.822l-2.03 12.452c-0.94 0.487-1.869 0.988-2.796 1.5l-11.481-5.235c-1.1653-0.53332-2.5239-0.42312-3.588 0.291-1.0678 0.7098-1.6897 1.9237-1.642 3.205l0.44 12.635c-0.81749 0.65454-1.6262 1.3199-2.426 1.996l-12.305-2.9c-1.2479-0.29242-2.5584 0.08-3.466 0.985-0.90811 0.9058-1.2814 2.2178-0.986 3.466l2.899 12.308c-0.673 0.797-1.338 1.604-1.991 2.421l-12.636-0.44c-1.2791-0.04037-2.4893 0.57942-3.204 1.641-0.71297 1.0652-0.82309 2.4238-0.291 3.59l5.234 11.484c-0.509 0.922-1.012 1.852-1.5 2.796l-12.449 2.025c-2.7128 0.44235-4.0133 3.5836-2.407 5.814l7.365 10.23c-0.32 1.01-0.631 2.024-0.925 3.047l-11.808 4.415c-2.5709 0.96582-3.2321 4.2964-1.225 6.171l9.237 8.614c-0.115 1.04-0.217 2.087-0.305 3.131l-10.749 6.653c-1.089 0.67419-1.7512 1.8642-1.75 3.145 0 1.284 0.663 2.473 1.751 3.143l10.748 6.653c0.088 1.047 0.19 2.092 0.305 3.131l-9.238 8.617c-2.0113 1.8728-1.3486 5.2075 1.226 6.169l11.808 4.415c0.294 1.022 0.605 2.037 0.925 3.047l-7.365 10.231c-1.6097 2.2305-0.30582 5.3751 2.41 5.812l12.447 2.025c0.487 0.944 0.986 1.874 1.5 2.8l-5.235 11.48c-0.53308 1.166-0.42291 2.5251 0.291 3.59 0.70985 1.0671 1.9233 1.6886 3.204 1.641l12.63-0.442c0.659 0.821 1.322 1.626 1.997 2.426l-2.899 12.31c-0.29516 1.246 0.07822 2.5559 0.986 3.459 0.90529 0.90894 2.2183 1.2813 3.466 0.983l12.305-2.898c0.8 0.68 1.61 1.34 2.427 1.99l-0.44 12.639c-0.09906 2.7469 2.7297 4.636 5.229 3.492l11.481-5.231c0.92443 0.51365 1.8565 1.0134 2.796 1.499l2.03 12.445c0.20391 1.2659 1.05 2.3353 2.235 2.825 1.1842 0.49049 2.5377 0.3343 3.579-0.413l10.229-7.37c1.01 0.32 2.025 0.633 3.047 0.927l4.415 11.804c0.44699 1.2014 1.4862 2.0841 2.744 2.331 1.2564 0.25347 2.5541-0.16559 3.425-1.106l8.617-9.238c1.04 0.12 2.086 0.22 3.133 0.313l6.653 10.748c0.67477 1.0874 1.8633 1.7491 3.143 1.75 1.2804-3.8e-4 2.4697-0.66218 3.145-1.75l6.653-10.748c1.047-0.093 2.092-0.193 3.131-0.313l8.615 9.238c0.871 0.93955 2.168 1.3585 3.424 1.106 1.2574-0.24777 2.2962-1.1302 2.744-2.331l4.415-11.804c1.022-0.294 2.038-0.607 3.048-0.927l10.231 7.37c2.2318 1.6044 5.372 0.30125 5.812-2.412l2.03-12.445c0.939-0.487 1.868-0.993 2.795-1.5l11.481 5.232c2.4998 1.1478 5.3319-0.74313 5.23-3.492l-0.44-12.638c0.81815-0.6508 1.6259-1.3146 2.423-1.991l12.306 2.898c1.25 0.294 2.56-0.07 3.463-0.983 0.90778-0.90311 1.2812-2.213 0.986-3.459l-2.898-12.31c0.675-0.8 1.34-1.605 1.99-2.426l12.636 0.442c1.2807 0.0484 2.4943-0.57285 3.204-1.64 0.71513-1.0654 0.82461-2.426 0.289-3.592l-5.232-11.478c0.511-0.927 1.013-1.857 1.497-2.8l12.45-2.026c1.2658-0.20323 2.3347-1.0502 2.822-2.236 0.49077-1.1834 0.33374-2.5365-0.415-3.576l-7.365-10.23c0.318-1.011 0.629-2.026 0.925-3.048l11.806-4.415c1.2018-0.44701 2.0846-1.4867 2.331-2.745 0.2531-1.2561-0.16593-2.5533-1.106-3.424l-9.235-8.617c0.112-1.04 0.215-2.086 0.305-3.13l10.748-6.654c1.0895-0.67288 1.7522-1.8625 1.751-3.143 0-1.281-0.66-2.472-1.749-3.145zm-71.932 89.156c-4.104-0.885-6.714-4.93-5.833-9.047 0.878-4.112 4.92-6.729 9.023-5.844 4.104 0.879 6.718 4.931 5.838 9.04-0.88 4.11-4.926 6.73-9.028 5.851zm-131-104.17c3.5006-1.5572 5.0777-5.6559 3.524-9.158 0 0-7.2499-16.112-7.0322-17.824 1.5218-11.97 10.589-23.092 20.547-31.809 10.245-8.9682 29.051-12.642 41.033-15.888 0.84451-0.22875 12.957 12.302 12.957 12.302 2.6416 2.7726 7.0324 2.8739 9.799 0.226l13.098-12.528c27.445 5.11 50.682 22.194 64.073 45.633l-8.967 20.253c-1.548 3.505 0.032 7.604 3.527 9.157l17.264 7.668c0.298 3.065 0.455 6.161 0.455 9.3 2.4014 22.942-8.1651 47.083-26.846 65.594l-16.082-3.456h-1e-3c-3.7456-0.80326-7.4322 1.5852-8.23 5.332l-3.816 17.807c-11.775 5.344-24.85 8.313-38.621 8.313-14.086 0-27.446-3.116-39.43-8.688l-3.814-17.806c-0.802-3.747-4.486-6.134-8.228-5.33l-15.72 3.376c-15.659-17.659-25.993-45.09-26.401-65.142 0-3.398 0.183-6.756 0.535-10.056v1e-3l16.376-7.277m21.559 103.8c-4.105 0.886-8.146-1.731-9.029-5.843-0.878-4.119 1.732-8.162 5.836-9.047 4.105-0.878 8.148 1.739 9.028 5.85 0.878 4.11-1.734 8.16-5.836 9.04zm-29.017-117.66c1.703 3.842-0.03 8.345-3.867 10.045-3.837 1.705-8.328-0.03-10.03-3.875-1.703-3.845 0.029-8.34 3.867-10.045 3.8394-1.7029 8.3321 0.03238 10.03 3.874zm78.492-71.241c3.033-2.905 7.844-2.79 10.748 0.247 2.898 3.046 2.788 7.862-0.252 10.765-3.033 2.906-7.844 2.793-10.748-0.25-2.8972-3.0434-2.7845-7.8576 0.252-10.762zm88.983 71.61c1.697-3.8415 6.1897-5.5762 10.028-3.872 3.838 1.702 5.57 6.203 3.867 10.045-1.6963 3.8433-6.1904 5.5796-10.03 3.875-3.833-1.703-5.565-6.2-3.865-10.048z"
       color="#000000"
       color-rendering="auto"
       dominant-baseline="auto"
       image-rendering="auto"
       shape-rendering="auto"
       solid-color="#000000"
       stop-color="#000000"
       style="font-feature-settings:normal;font-variant-alternates:normal;font-variant-caps:normal;font-variant-east-asian:normal;font-variant-ligatures:normal;font-variant-numeric:normal;font-variant-position:normal;font-variation-settings:normal;inline-size:0;isolation:auto;mix-blend-mode:normal;shape-margin:0;shape-padding:0;text-decoration-color:#000000;text-decoration-line:none;text-decoration-style:solid;text-indent:0;text-orientation:mixed;text-transform:none;white-space:normal"
       id="path9" />
    <g
       aria-label="V"
       id="g13">
      <path
         d="m40.368 56.262 35.459-17.039 51.802 139.85 47.083-133.45 40.067 10.639-61.629 166.39h-51.153z"
         stroke-width=".21397"
         id="path11" />
    </g>
  </g>
  <metadata
     id="metadata31">
    <rdf:RDF>
      <cc:Work
         rdf:about="">
        <dc:title>Vaultwarden Icon - White</dc:title>
        <dc:creator>
          <cc:Agent>
            <dc:title>Mathijs van Veluw</dc:title>
          </cc:Agent>
        </dc:creator>
        <dc:relation>Rust Logo</dc:relation>
      </cc:Work>
    </rdf:RDF>
  </metadata>
</svg>
