<?xml version="1.0" encoding="utf-8"?>
<svg width="1365.8256" height="280.48944" version="1.1" viewBox="0 0 1365.8255 280.48944" xmlns="http://www.w3.org/2000/svg" xmlns:bx="https://boxy-svg.com">
  <style>
@media (prefers-color-scheme: dark) {
  svg { -webkit-filter:invert(0.90); filter:invert(0.90); }
}</style>
  <title>Vaultwarden Logo</title>
  <defs>
    <style bx:fonts="Roboto Mono">@import url(https://fonts.googleapis.com/css2?family=Roboto+Mono%3Aital%2Cwght%400%2C100..700%3B1%2C100..700&amp;display=swap);</style>
  </defs>
  <polygon points="73.697 24.312 56.166 66.045 166.087 66.045 117.996 180.526 177.075 180.526 177.092 215.104 73.123 215.104 121.184 100.685 41.69 100.518 24.177 142.213 66.908 142.306 18.801 256.837 209.417 256.837 209.517 256.837 209.417 138.793 172.32 138.793 186.847 104.204 236.278 104.204 236.278 256.837 268.621 256.837 268.621 62.47 204.383 62.47 220.405 24.312 73.697 24.312" fill-rule="evenodd" style="stroke-width: 0.44;"/>
  <text style="font-family: &quot;Roboto Mono&quot;; font-size: 28px; white-space: pre;" transform="matrix(8.428713, 0, 0, 8.610577, -7369.549805, -1092.712769)" x="920.019" y="153.758">Locker</text>
  <text style="white-space: pre; fill: rgb(51, 51, 51); font-family: Arial, sans-serif; font-size: 28px;" x="1459.18" y="192.106">Enter your text here</text>
</svg>